<svg id="visual" viewBox="0 0 900 600" width="900" height="600" xmlns="http://www.w3.org/2000/svg" xmlns:xlink="http://www.w3.org/1999/xlink" version="1.1"><rect x="0" y="0" width="900" height="600" fill="#000917"></rect><path d="M0 397L129 425L257 406L386 388L514 433L643 438L771 442L900 405L900 601L771 601L643 601L514 601L386 601L257 601L129 601L0 601Z" fill="#b1b1b1"></path><path d="M0 458L129 395L257 474L386 429L514 395L643 465L771 414L900 432L900 601L771 601L643 601L514 601L386 601L257 601L129 601L0 601Z" fill="#979797"></path><path d="M0 508L129 468L257 450L386 439L514 491L643 476L771 466L900 465L900 601L771 601L643 601L514 601L386 601L257 601L129 601L0 601Z" fill="#7e7e7e"></path><path d="M0 531L129 536L257 516L386 530L514 506L643 540L771 531L900 520L900 601L771 601L643 601L514 601L386 601L257 601L129 601L0 601Z" fill="#666666"></path><path d="M0 543L129 564L257 564L386 567L514 528L643 569L771 532L900 533L900 601L771 601L643 601L514 601L386 601L257 601L129 601L0 601Z" fill="#4f4f4f"></path></svg>